# xmcd
#
# Track frame offsets:
#	150
#	14652
#	27593
#	41032
#	54355
#	66896
#	78899
#	91481
#	105366
#	117835
#	129448
#	143882
#	157499
#	170579
#	184882
#	197488
#	211411
#	224771
#	237894
#	252714
#	264309
#	279871
#	292254
#	304829
#	319561
#
# Disc length: 4434 seconds
#
# Revision: 1
# Processed by: cddbd v1.5.2PL0 Copyright (c) Steve Scherf et al.
# Submitted via: audiograbber 1.83.01
#
DISCID=7e115019
DTITLE=The Carter Family - Wildwood Flower CD01
DYEAR=2008
DGENRE=Country
TTITLE0=Wildwood Flower
TTITLE1=Keep On The Sunny Side
TTITLE2=Wabash Cannonball
TTITLE3=John Hardy Was A Desperate Little Man
TTITLE4=Worried Man Blues
TTITLE5=River Of Jordan
TTITLE6=Anchored In Love
TTITLE7=Where We'll Never Grow Old
TTITLE8=Hello Stranger
TTITLE9=I'll Be Home Someday
TTITLE10=Faded Coat Of Blue
TTITLE11=Lonesome Pine Special
TTITLE12=The Litle Log Hut In The Lane
TTITLE13=On The Rock Where Moses Stood
TTITLE14=Something Got Hold Of Me
TTITLE15=Tell Me That You Love Me
TTITLE16=The Rambling Boy
TTITLE17=Sow 'Em On The Mountain
TTITLE18=Happiest Days Of All
TTITLE19=Lonesome Homesick Blues
TTITLE20=The Poor Orphan Child
TTITLE21=I Ain't Gonna Work Tomorrow
TTITLE22=When This Evening Sun Goes Down
TTITLE23=Will You Miss Me When I'm Gone
TTITLE24=Bury Me Under The Weeping Willow Tree
EXTD=
EXTT0=
EXTT1=
EXTT2=
EXTT3=
EXTT4=
EXTT5=
EXTT6=
EXTT7=
EXTT8=
EXTT9=
EXTT10=
EXTT11=
EXTT12=
EXTT13=
EXTT14=
EXTT15=
EXTT16=
EXTT17=
EXTT18=
EXTT19=
EXTT20=
EXTT21=
EXTT22=
EXTT23=
EXTT24=
PLAYORDER=
